<svg xmlns="http://www.w3.org/2000/svg" xmlns:xlink="http://www.w3.org/1999/xlink" width="200" zoomAndPan="magnify" viewBox="0 0 150 149.999998" height="200" preserveAspectRatio="xMidYMid meet" version="1.0"><defs><clipPath id="e728fd3e69"><path d="M 6 24.414062 L 113 24.414062 L 113 125.664062 L 6 125.664062 Z M 6 24.414062 " clip-rule="nonzero"/></clipPath><clipPath id="ab93529283"><path d="M 6 54 L 140 54 L 140 125.664062 L 6 125.664062 Z M 6 54 " clip-rule="nonzero"/></clipPath></defs><g clip-path="url(#e728fd3e69)"><path fill="#efb054" d="M 6.242188 125.652344 L 6.242188 40 C 6.242188 40 5.648438 34.324219 20.628906 34.808594 L 20.628906 24.425781 C 20.628906 24.425781 37.3125 25.074219 46.386719 24.425781 L 53.515625 34.160156 L 100.980469 36.105469 C 100.980469 36.105469 113.457031 36.640625 112.648438 45.191406 C 111.835938 53.742188 112.515625 125.652344 112.515625 125.652344 Z M 6.242188 125.652344 " fill-opacity="1" fill-rule="nonzero"/></g><path fill="#ffffff" d="M 15.226562 39.785156 L 97.742188 39.785156 L 97.742188 119.8125 L 15.226562 119.8125 Z M 15.226562 39.785156 " fill-opacity="1" fill-rule="nonzero"/><g clip-path="url(#ab93529283)"><path fill="#f4db73" d="M 6.242188 125.652344 C 6.242188 125.652344 28.921875 61.414062 38.640625 57.519531 C 48.363281 53.625 131.957031 52.328125 139.085938 57.519531 C 139.085938 57.519531 144.269531 63.359375 112.515625 125.652344 Z M 6.242188 125.652344 " fill-opacity="1" fill-rule="nonzero"/></g></svg>